{"title":"Top Of The Pops 2011 (Mashup) - H.264 - 480p ~~~AbhinavRocks {{-","uid":6930713,"size":47079159,"categoryP":"video","categoryS":"music_videos","magnet":"?xt=urn:btih:f37a8af08eae599765892524ee70bae2068390cc&amp;dn=Top+Of+The+Pops+2011+%28Mashup%29+-+H.264+-+480p+%7E%7E%7EAbhinavRocks+%7B%7B-&amp;tr=udp%3A%2F%2Ftracker.openbittorrent.com%3A80&amp;tr=udp%3A%2F%2Fopen.demonii.com%3A1337&amp;tr=udp%3A%2F%2Ftracker.coppersurfer.tk%3A6969&amp;tr=udp%3A%2F%2Fexodus.desync.com%3A6969","seeders":1,"leechers":0,"uploader":"AbhiHKRG","files":6,"time":1325654135,"description":"SCREEN ::\n &lt;a href=&quot;\nhttp://i.minus.com/iqTAKRBdUtA5X.png&quot; rel=&quot;nofollow&quot; target=&quot;_NEW&quot;&gt;\nhttp://i.minus.com/iqTAKRBdUtA5X.png&lt;/a&gt;\n &lt;a href=&quot;\nhttp://i.minus.com/ibmGOTKYsJ9t2e.png&quot; rel=&quot;nofollow&quot; target=&quot;_NEW&quot;&gt;\nhttp://i.minus.com/ibmGOTKYsJ9t2e.png&lt;/a&gt;\n &lt;a href=&quot;\nhttp://i.minus.com/i658X560n42qW.png&quot; rel=&quot;nofollow&quot; target=&quot;_NEW&quot;&gt;\nhttp://i.minus.com/i658X560n42qW.png&lt;/a&gt;\n &lt;a href=&quot;\nhttp://i.minus.com/ibsLkDfuERUhkb.png&quot; rel=&quot;nofollow&quot; target=&quot;_NEW&quot;&gt;\nhttp://i.minus.com/ibsLkDfuERUhkb.png&lt;/a&gt;\n &lt;a href=&quot;\nhttp://i.minus.com/ibURMZqxFpSJv.png&quot; rel=&quot;nofollow&quot; target=&quot;_NEW&quot;&gt;\nhttp://i.minus.com/ibURMZqxFpSJv.png&lt;/a&gt;\n &lt;a href=&quot;\nhttp://i.minus.com/i96ULHZiCDpHB.png&quot; rel=&quot;nofollow&quot; target=&quot;_NEW&quot;&gt;\nhttp://i.minus.com/i96ULHZiCDpHB.png&lt;/a&gt;\n &lt;a href=&quot;\nhttp://i.minus.com/ibeOHqYwifVQ2o.png&quot; rel=&quot;nofollow&quot; target=&quot;_NEW&quot;&gt;\nhttp://i.minus.com/ibeOHqYwifVQ2o.png&lt;/a&gt;\n &lt;a href=&quot;\nhttp://i.minus.com/ibp3egMtsGB6JC.png&quot; rel=&quot;nofollow&quot; target=&quot;_NEW&quot;&gt;\nhttp://i.minus.com/ibp3egMtsGB6JC.png&lt;/a&gt;\n &lt;a href=&quot;\nhttp://i.minus.com/ibzAnZYaTmdKBp.png&quot; rel=&quot;nofollow&quot; target=&quot;_NEW&quot;&gt;\nhttp://i.minus.com/ibzAnZYaTmdKBp.png&lt;/a&gt;\n &lt;a href=&quot;\nhttp://i.minus.com/i9w9776ARaX4i.jpg&quot; rel=&quot;nofollow&quot; target=&quot;_NEW&quot;&gt;\nhttp://i.minus.com/i9w9776ARaX4i.jpg&lt;/a&gt;\n\n\nGeneral ::\nFormat                           : AVI\nFormat/Info                      : Audio Video Interleave\nFile size                        : 44.9 MiB\nDuration                         : 4mn 7s\nOverall bit rate                 : 1 522 Kbps\n\n\nVideo Info ::\nID                               : 0\nFormat                           : AVC\nFormat/Info                      : Advanced Video Codec\nFormat profile                   : &lt;a class=&quot;__cf_email__&quot; href=&quot;/cdn-cgi/l/email-protection&quot; data-cfemail=&quot;d098b9b7b8909ce5fee1&quot;&gt;[email&amp;#160;protected]&lt;/a&gt;&lt;script cf-hash='f9e31' type=&quot;text/javascript&quot;&gt;\n/* &lt;![CDATA[ */!function(){try{var t=&quot;currentScript&quot;in document?document.currentScript:function(){for(var t=document.getElementsByTagName(&quot;script&quot;),e=t.length;e--;)if(t[e].getAttribute(&quot;cf-hash&quot;))return t[e]}();if(t&amp;&amp;t.previousSibling){var e,r,n,i,c=t.previousSibling,a=c.getAttribute(&quot;data-cfemail&quot;);if(a){for(e=&quot;&quot;,r=parseInt(a.substr(0,2),16),n=2;a.length-n;n+=2)i=parseInt(a.substr(n,2),16)^r,e+=String.fromCharCode(i);e=document.createTextNode(e),c.parentNode.replaceChild(e,c)}}}catch(u){}}();/* ]]&gt; */&lt;/script&gt;\nFormat settings, CABAC           : Yes\nFormat settings, ReFrames        : 2 frames\nCodec ID                         : H264\nDuration                         : 10s 0ms\nBit rate                         : 1 318 Kbps\nWidth                            : 720 pixels\nHeight                           : 290 pixels\nDisplay aspect ratio             : 2.483\nFrame rate                       : 30.000 fps\nColor space                      : YUV\nChroma subsampling               : 4:2:0\nBit depth                        : 8 bits\nScan type                        : Progressive\nBits/(Pixel*Frame)               : 0.210\nStream size                      : 38.9 MiB (87%)\n\n\nAudio Info ::\nID                               : 1\nFormat                           : MPEG Audio\nFormat version                   : Version 1\nFormat profile                   : Layer 3\nCodec ID                         : 55\nCodec ID/Hint                    : MP3\nDuration                         : 4mn 7s\nBit rate mode                    : Constant\nBit rate                         : 192 Kbps\nChannel(s)                       : 2 channels\nSampling rate                    : 44.1 KHz\nCompression mode                 : Lossy\nStream size                      : 5.67 MiB (13%)","torrent":{"xt":"urn:btih:f37a8af08eae599765892524ee70bae2068390cc","amp;dn":"Top+Of+The+Pops+2011+%28Mashup%29+-+H.264+-+480p+%7E%7E%7EAbhinavRocks+%7B%7B-","amp;tr":["udp%3A%2F%2Ftracker.openbittorrent.com%3A80","udp%3A%2F%2Fopen.demonii.com%3A1337","udp%3A%2F%2Ftracker.coppersurfer.tk%3A6969","udp%3A%2F%2Fexodus.desync.com%3A6969"],"infoHash":"f37a8af08eae599765892524ee70bae2068390cc","infoHashBuffer":{"type":"Buffer","data":[243,122,138,240,142,174,89,151,101,137,37,36,238,112,186,226,6,131,144,204]},"announce":[],"urlList":[]}}